{"title":"Cop.Out.2010.1080p.BluRay.DTS.x264-LTT","uid":5690009,"size":6934236355,"categoryP":"video","categoryS":"hd___movies","magnet":"?xt=urn:btih:60e55864a2983e5346bbd89b38eb582a2b0cd389&amp;dn=Cop.Out.2010.1080p.BluRay.DTS.x264-LTT&amp;tr=udp%3A%2F%2Ftracker.openbittorrent.com%3A80&amp;tr=udp%3A%2F%2Fopen.demonii.com%3A1337&amp;tr=udp%3A%2F%2Ftracker.coppersurfer.tk%3A6969&amp;tr=udp%3A%2F%2Fexodus.desync.com%3A6969","seeders":0,"leechers":1,"uploader":null,"files":2,"time":1279054931,"description":"Cop.Out.2010.1080p.Bluray.DTS.x264-LTT.mkv\n******************************************\n\nTiTLE......  Cop Out\nYEAR.......  2010\nGENRE......  Action | Comedy | Crime\niMDB RATE..  User Rating: 5.9/10 (8,445 votes)\niMDB URL... &lt;a href=&quot; http://www.imdb.com/title/tt1385867/&quot; rel=&quot;nofollow&quot; target=&quot;_NEW&quot;&gt; http://www.imdb.com/title/tt1385867/&lt;/a&gt;\n*************************************************\nVideo\nDuration                         : 1h 47mn\nOverall bit rate                 : 8 600 Kbps\nWidth                            : 1 920 pixels\nHeight                           : 816 pixels\nDisplay aspect ratio             : 2.35:1\nFrame rate                       : 23.976 fps\nStream size                      : 5.19 GiB (80%)\n\nAudio\nFormat                           : DTS\nFormat/Info                      : Digital Theater Systems\nBit rate                         : 1 510 Kbps\nChannel(s)                       : 6 channels\nChannel positions                : Front: L C R, Surround: L R, LFE\nSampling rate                    : 48.0 KHz\nResolution                       : 24 bits\nStream size                      : 1.13 GiB (18%)\nLanguage                         : English\n\nSubtitles: English (*.srt)\n**************************\n","torrent":{"xt":"urn:btih:60e55864a2983e5346bbd89b38eb582a2b0cd389","amp;dn":"Cop.Out.2010.1080p.BluRay.DTS.x264-LTT","amp;tr":["udp%3A%2F%2Ftracker.openbittorrent.com%3A80","udp%3A%2F%2Fopen.demonii.com%3A1337","udp%3A%2F%2Ftracker.coppersurfer.tk%3A6969","udp%3A%2F%2Fexodus.desync.com%3A6969"],"infoHash":"60e55864a2983e5346bbd89b38eb582a2b0cd389","infoHashBuffer":{"type":"Buffer","data":[96,229,88,100,162,152,62,83,70,187,216,155,56,235,88,42,43,12,211,137]},"announce":[],"urlList":[]}}